<svg viewBox="0 0 1600 900" xmlns="http://www.w3.org/2000/svg" preserveAspectRatio="xMidYMid slice">
  <g fill="white">
    <path d="M0 620c190-90 350-120 540-45 165 65 330 70 500 5 190-72 360-62 560 40v280H0z" opacity="0.92"/>
    <path d="M0 500c180-60 280-80 430-56 180 30 280 110 500 120 220 10 380-35 670-134v120c-210 80-370 122-580 120-235-2-350-84-540-112-165-24-267-3-480 64z" opacity="0.58"/>
    <path d="M0 292c230-14 430-18 760-14 350 5 560 18 840 34v18c-260-14-470-24-840-28-334-4-540-1-760 12z" opacity="0.48"/>
    <path d="M1360 152c-20 40-13 92 18 134 22-42 19-90-6-132zm16 32c34-14 72-16 112-6-30 20-54 44-72 74-16-30-26-46-40-68zm-10 56c-44 4-80 20-120 46 42 2 80 12 114 34 7-30 9-48 6-80z" opacity="0.6"/>
  </g>
</svg>
