<svg viewBox="0 0 1600 900" xmlns="http://www.w3.org/2000/svg" preserveAspectRatio="xMidYMid slice">
  <g fill="currentColor" opacity="0.9">
    <path d="M0 620c190-90 350-120 540-45 165 65 330 70 500 5 190-72 360-62 560 40v280H0z"/>
    <path d="M0 500c180-60 280-80 430-56 180 30 280 110 500 120 220 10 380-35 670-134v120c-210 80-370 122-580 120-235-2-350-84-540-112-165-24-267-3-480 64z" opacity="0.52"/>
    <path d="M1220 210c-45 5-76 34-82 74 41-15 73-11 102 9-5-39-12-62-20-83zm-960 110c58 8 98 44 112 100-53-21-103-20-152 3 11-56 22-82 40-103z" opacity="0.4"/>
  </g>
</svg>
