<svg viewBox="0 0 1600 900" xmlns="http://www.w3.org/2000/svg" preserveAspectRatio="xMidYMid slice">
  <g fill="white">
    <path d="M0 640h1600v260H0z" opacity="0.86"/>
    <path d="M40 640V430h90v210h70V360h120v280h80V300h110v340h95V390h100v250h86V335h120v305h84V418h104v222h80V370h120v270h90V520h96v120z" opacity="0.74"/>
    <path d="M70 454h46v14H70zm0 28h46v14H70zm150-78h60v12h-60zm0 24h60v12h-60zm295-90h58v12h-58zm170 66h62v12h-62zm258-42h64v12h-64zm330 52h56v12h-56z" opacity="0.55"/>
    <path d="M0 585c220 0 340-54 520-54s295 50 475 50c200 0 330-40 605-57v116H0z" opacity="0.34"/>
  </g>
</svg>
