<svg viewBox="0 0 1600 900" xmlns="http://www.w3.org/2000/svg" preserveAspectRatio="xMidYMid slice">
  <g fill="currentColor">
    <path d="M0 610c210-130 390-160 610-120 180 32 300 140 480 155 170 14 300-35 510-115v370H0z" opacity="0.75"/>
    <path d="M140 560l120-95 120 95v85H140zm240-20l110-80 110 80v95H380zm240 8l100-88 110 88v105H620zm248-16l120-92 130 92v118H868zm300 18l120-88 124 88v102h-244z" opacity="0.45"/>
    <path d="M0 740c260-110 500-120 760-40 220 68 400 60 840-20v220H0z" opacity="0.55"/>
  </g>
</svg>
